<svg width="178.18mm" height="59.393mm" version="1.1" viewBox="0 0 178.18 59.393" xmlns="http://www.w3.org/2000/svg">
 <g transform="translate(-20.828 -43.984)">
  <path d="m33.124 43.984h153.59c6.8119 0 12.296 5.4839 12.296 12.296v34.801c0 6.8119-5.4839 12.296-12.296 12.296h-153.59c-6.8119 0-12.296-5.4839-12.296-12.296v-34.801c0-6.8119 5.4839-12.296 12.296-12.296z" fill="#d7e3f4" stroke-width=".265"/>
  <g fill="#1c1f24" stroke-width=".74516" aria-label="BRAND">
   <path d="m76.475 78.807q0 1.7884-0.924 3.0105-0.924 1.1923-2.5037 1.8182-1.5499 0.62594-3.3979 0.62594h-10.224v-21.163h11.326q1.4903 0 2.5634 0.80478 1.1028 0.77497 1.6692 2.0268 0.59613 1.2221 0.59613 2.5634 0 1.5201-0.77497 2.8912t-2.2653 2.0268q1.8182 0.53652 2.8614 1.9374 1.073 1.4009 1.073 3.4576zm-4.1431-0.77497q0-0.80478-0.32787-1.4307-0.32787-0.65574-0.8942-1.0134-0.53652-0.38748-1.2519-0.38748h-6.319v5.5738h6.1103q0.74516 0 1.3413-0.35768 0.62594-0.38748 0.98361-1.0134 0.35768-0.62594 0.35768-1.3711zm-8.7929-11.416v5.3354h5.4844q0.68555 0 1.2519-0.32787 0.56632-0.32787 0.8942-0.924 0.35768-0.59613 0.35768-1.4307 0-0.80478-0.32787-1.4009-0.29806-0.59613-0.83458-0.924-0.50671-0.32787-1.1625-0.32787z"/>
   <path d="m79.694 84.261v-21.163h9.3592q1.4605 0 2.6826 0.59613 1.2519 0.59613 2.1461 1.6096 0.924 1.0134 1.4009 2.2653 0.50671 1.2519 0.50671 2.5634 0 1.3413-0.4769 2.5932-0.4471 1.2221-1.3115 2.1461-0.86439 0.924-2.0268 1.4307l4.8287 7.9583h-4.5306l-4.3517-7.0939h-4.1133v7.0939zm4.1133-10.701h5.1565q0.77497 0 1.3711-0.4471 0.59613-0.4769 0.95381-1.2519t0.35768-1.7288q0-1.0134-0.41729-1.7586-0.41729-0.77497-1.073-1.2221-0.62594-0.4471-1.3711-0.4471h-4.9777z"/>
   <path d="m105.27 63.099h4.1729l7.7795 21.163h-4.2325l-1.9672-5.2758h-7.392l-1.9374 5.2758h-4.2325zm5.0075 12.996-2.921-8.7333-3.0403 8.7333z"/>
   <path d="m123.66 70.67v13.592h-4.1133v-21.163h3.2787l10.939 13.949v-13.92h4.1133v21.133h-3.4277z"/>
   <path d="m142.29 84.261v-21.163h7.6901q3.4576 0 5.7825 1.4307 2.3249 1.4009 3.4874 3.8152 1.1624 2.3845 1.1624 5.3056 0 3.2191-1.2817 5.6036t-3.6364 3.696q-2.3249 1.3115-5.5142 1.3115zm13.979-10.611q0-2.0566-0.74517-3.6066-0.74516-1.5797-2.1461-2.4441-1.4009-0.8942-3.398-0.8942h-3.5768v13.949h3.5768q2.0268 0 3.4278-0.8942 1.4009-0.924 2.1163-2.5037 0.74517-1.6096 0.74517-3.6066z"/>
  </g>
 </g>
</svg>
