<svg width="192.62mm" height="24.102mm" version="1.1" viewBox="0 0 192.62 24.102" xmlns="http://www.w3.org/2000/svg">
 <g transform="translate(-10.825 -42.31)">
  <path d="m10.825 42.31h192.62v23.812h-192.62z" fill="#d5e5ff" fill-rule="evenodd" stroke-width=".26458"/>
  <path d="m10.825 42.599h192.62v23.812h-192.62z" fill="#d5e5ff" fill-rule="evenodd" stroke-width=".26458"/>
  <path transform="matrix(.26458 0 0 .26458 10.825 42.31)" d="m4.8281 42.82a46.409 46.409 0 0 0-4.8281 0.26758v46.912h51.377a46.409 46.409 0 0 0 0.005859-0.77148 46.409 46.409 0 0 0-46.408-46.408 46.409 46.409 0 0 0-0.14648 0z" fill="#59f"/>
  <text x="72.775795" y="56.670048" fill="#000000" font-family="'Noto Sans'" font-size="10.583px" stroke-width=".26458" style="line-height:1.25" xml:space="preserve"><tspan x="72.775795" y="56.670048"/><tspan x="72.775795" y="69.89917"/></text>
  <g fill="#1c2224" stroke-width=".26458" aria-label="HORIZONTAL ADS">
   <path d="m69.155 58.289h-0.9525v-3.5242h-3.8735v3.5242h-0.9525v-7.5565h0.9525v3.1962h3.8735v-3.1962h0.9525z"/>
   <path d="m77.812 54.5q0 1.1747-0.40216 2.0532-0.39158 0.86783-1.1642 1.3547t-1.9156 0.48683q-1.1747 0-1.9579-0.48683-0.77258-0.48683-1.1536-1.3652-0.381-0.87841-0.381-2.0532 0-1.1642 0.381-2.032 0.381-0.86783 1.1536-1.3547 0.78316-0.48683 1.9685-0.48683 1.1324 0 1.905 0.48683 0.77258 0.47625 1.1642 1.3547 0.40216 0.86783 0.40216 2.0426zm-5.969 0q0 1.4287 0.60325 2.2542 0.60325 0.81491 1.8838 0.81491 1.2912 0 1.8838-0.81491 0.59266-0.8255 0.59266-2.2542 0-1.4287-0.59266-2.2331-0.59266-0.81491-1.8732-0.81491t-1.8944 0.81491q-0.60325 0.80433-0.60325 2.2331z"/>
   <path d="m81.569 50.733q1.4076 0 2.0743 0.53975 0.67733 0.52916 0.67733 1.6087 0 0.60325-0.22225 1.0054t-0.5715 0.64558q-0.33867 0.23283-0.71966 0.37042l2.0743 3.3867h-1.1112l-1.8309-3.1221h-1.5028v3.1221h-0.9525v-7.5565zm-0.05292 0.8255h-1.0795v2.8046h1.1324q0.92075 0 1.3441-0.35983 0.42333-0.37042 0.42333-1.0795 0-0.74083-0.4445-1.0477-0.4445-0.3175-1.3758-0.3175z"/>
   <path d="m88.194 58.289h-2.7305v-0.55033l0.889-0.20108v-6.0431l-0.889-0.21167v-0.55033h2.7305v0.55033l-0.889 0.21167v6.0431l0.889 0.20108z"/>
   <path d="m94.269 58.289h-5.2387v-0.71966l3.9793-5.9901h-3.8523v-0.84666h5.0059v0.71966l-3.9793 5.9901h4.0852z"/>
   <path d="m102.2 54.5q0 1.1747-0.40217 2.0532-0.39158 0.86783-1.1642 1.3547-0.77258 0.48683-1.9156 0.48683-1.1747 0-1.9579-0.48683-0.77258-0.48683-1.1536-1.3652t-0.381-2.0532q0-1.1642 0.381-2.032 0.381-0.86783 1.1536-1.3547 0.78316-0.48683 1.9685-0.48683 1.1324 0 1.905 0.48683 0.77258 0.47625 1.1642 1.3547 0.40217 0.86783 0.40217 2.0426zm-5.969 0q0 1.4287 0.60325 2.2542 0.60325 0.81491 1.8838 0.81491 1.2912 0 1.8838-0.81491 0.59266-0.8255 0.59266-2.2542 0-1.4287-0.59266-2.2331-0.59267-0.81491-1.8732-0.81491-1.2806 0-1.8944 0.81491-0.60325 0.80433-0.60325 2.2331z"/>
   <path d="m109.86 58.289h-1.1112l-4.0428-6.2759h-0.0423q0.0212 0.37042 0.0529 0.92075 0.0318 0.55033 0.0318 1.1324v4.2227h-0.87841v-7.5565h1.1007l4.0322 6.2547h0.0423q-0.0106-0.16933-0.0318-0.508-0.0106-0.33866-0.0318-0.74083-0.0106-0.40216-0.0106-0.74083v-4.2651h0.889z"/>
   <path d="m114.3 58.289h-0.95249v-6.7204h-2.3601v-0.83608h5.6621v0.83608h-2.3495z"/>
   <path d="m121.8 58.289-0.91016-2.3389h-2.9951l-0.89958 2.3389h-0.96308l2.9527-7.5882h0.85725l2.9422 7.5882zm-1.1959-3.1856-0.84667-2.286q-0.0317-0.08467-0.10583-0.30692-0.0741-0.22225-0.14817-0.45508-0.0635-0.24342-0.10583-0.37042-0.0741 0.32808-0.16933 0.64558-0.0953 0.30692-0.15875 0.48683l-0.85725 2.286z"/>
   <path d="m123.82 58.289v-7.5565h0.9525v6.7098h3.302v0.84666z"/>
   <path d="m136.86 58.289-0.91016-2.3389h-2.9951l-0.89958 2.3389h-0.96308l2.9527-7.5882h0.85725l2.9422 7.5882zm-1.1959-3.1856-0.84667-2.286q-0.0318-0.08467-0.10583-0.30692-0.0741-0.22225-0.14817-0.45508-0.0635-0.24342-0.10583-0.37042-0.0741 0.32808-0.16933 0.64558-0.0952 0.30692-0.15875 0.48683l-0.85725 2.286z"/>
   <path d="m144.93 54.437q0 1.9156-1.0478 2.8892-1.0372 0.96308-2.8998 0.96308h-2.1061v-7.5565h2.3283q1.143 0 1.9791 0.42333t1.2912 1.2488q0.45509 0.81491 0.45509 2.032zm-1.0054 0.03175q0-1.5134-0.75141-2.2119-0.74083-0.70908-2.1061-0.70908h-1.2382v5.9266h1.0266q3.0692 0 3.0692-3.0057z"/>
   <path d="m150.89 56.268q0 1.0054-0.73025 1.5663-0.73024 0.56092-1.9685 0.56092-0.635 0-1.1748-0.09525-0.53974-0.09525-0.89958-0.26458v-0.91016q0.381 0.16933 0.94192 0.30692 0.5715 0.13758 1.1747 0.13758 0.84667 0 1.27-0.32808 0.43391-0.32808 0.43391-0.889 0-0.37042-0.15875-0.62442-0.15874-0.254-0.55033-0.46566-0.381-0.22225-1.0689-0.46566-0.96308-0.34925-1.4605-0.85725-0.48683-0.508-0.48683-1.3864 0-0.60325 0.30692-1.0266 0.30691-0.43392 0.84666-0.66675 0.55033-0.23283 1.2594-0.23283 0.62441 0 1.143 0.11642t0.94192 0.30692l-0.29634 0.81491q-0.39158-0.16933-0.85724-0.28575-0.45509-0.11642-0.9525-0.11642-0.70908 0-1.0689 0.30692-0.35984 0.29633-0.35984 0.79375 0 0.381 0.15875 0.635 0.15875 0.254 0.51858 0.45508 0.35984 0.20108 0.97367 0.43392 0.66675 0.24342 1.1218 0.52916 0.46566 0.27516 0.6985 0.66675 0.24341 0.39158 0.24341 0.98425z"/>
  </g>
 </g>
</svg>
