<?xml version="1.0" encoding="UTF-8" standalone="no"?>
<svg
   xmlns:dc="http://purl.org/dc/elements/1.1/"
   xmlns:cc="http://creativecommons.org/ns#"
   xmlns:rdf="http://www.w3.org/1999/02/22-rdf-syntax-ns#"
   xmlns:svg="http://www.w3.org/2000/svg"
   xmlns="http://www.w3.org/2000/svg"
   width="256.64584mm"
   height="66.145828mm"
   viewBox="0 0 256.64585 66.145829"
   version="1.1"
   id="svg8">
  <defs
     id="defs2">
    <clipPath
       clipPathUnits="userSpaceOnUse"
       id="clipPath875">
      <rect
         style="fill:#d5e5ff;fill-rule:evenodd;stroke-width:0.264583"
         id="rect877"
         width="192.61667"
         height="23.8125"
         x="10.824553"
         y="42.31002" />
    </clipPath>
    <mask
       maskUnits="userSpaceOnUse"
       id="mask896">
      <rect
         style="fill:#d5e5ff;fill-rule:evenodd;stroke-width:0.264583"
         id="rect898"
         width="192.61667"
         height="23.8125"
         x="10.824553"
         y="66.12252" />
    </mask>
  </defs>
  <metadata
     id="metadata5">
    <rdf:RDF>
      <cc:Work
         rdf:about="">
        <dc:format>image/svg+xml</dc:format>
        <dc:type
           rdf:resource="http://purl.org/dc/dcmitype/StillImage" />
        <dc:title></dc:title>
      </cc:Work>
    </rdf:RDF>
  </metadata>
  <g
     id="layer1"
     transform="translate(-10.824553,-42.59902)">
    <path
       id="rect24"
       style="fill:#d5e5ff;fill-rule:evenodd;stroke-width:0.509017"
       d="M 10.824553,42.59902 H 267.47039 v 66.14583 H 10.824553 Z" />
    <path
       id="circle884"
       clip-path="none"
       mask="none"
       style="fill:#5599ff;stroke:none;stroke-width:1.91872"
       d="M 928.17188 109.36328 A 89.045299 89.045299 0 0 0 839.3418 198.4082 A 89.045299 89.045299 0 0 0 855.81055 250 L 970 250 L 970 119.68555 A 89.045299 89.045299 0 0 0 928.38672 109.36328 A 89.045299 89.045299 0 0 0 928.17188 109.36328 z "
       transform="matrix(0.26458333,0,0,0.26458333,10.824553,42.59902)" />
    <text
       xml:space="preserve"
       style="font-style:normal;font-weight:normal;font-size:10.5833px;line-height:1.25;font-family:sans-serif;fill:#000000;fill-opacity:1;stroke:none;stroke-width:0.264583"
       x="72.775795"
       y="56.670048"
       id="text906"><tspan
         id="tspan904"
         x="72.775795"
         y="56.670048"
         style="font-style:normal;font-variant:normal;font-weight:normal;font-stretch:normal;font-family:'Noto Sans';-inkscape-font-specification:'Noto Sans';stroke-width:0.264583" /><tspan
         x="72.775795"
         y="69.89917"
         style="font-style:normal;font-variant:normal;font-weight:normal;font-stretch:normal;font-family:'Noto Sans';-inkscape-font-specification:'Noto Sans';stroke-width:0.264583"
         id="tspan908" /></text>
    <g
       aria-label="HORIZONTAL ADS 2"
       id="text1053"
       style="font-size:10.5833px;line-height:1.25;font-family:'Noto Sans';-inkscape-font-specification:'Noto Sans';stroke-width:0.264583">
      <path
         d="m 96.793198,79.455467 h -0.952497 v -3.524239 h -3.873488 v 3.524239 h -0.952497 v -7.556476 h 0.952497 v 3.196157 h 3.873488 v -3.196157 h 0.952497 z"
         style="stroke-width:0.264583"
         id="path1058" />
      <path
         d="m 105.45033,75.666646 q 0,1.174746 -0.40217,2.05316 -0.39158,0.867831 -1.16416,1.354662 -0.77258,0.486832 -1.91558,0.486832 -1.17474,0 -1.95791,-0.486832 -0.772578,-0.486831 -1.153577,-1.365245 -0.380998,-0.878414 -0.380998,-2.05316 0,-1.164163 0.380998,-2.031994 0.380999,-0.86783 1.153577,-1.354662 0.78317,-0.486832 1.9685,-0.486832 1.13241,0 1.90499,0.486832 0.77258,0.476248 1.16416,1.354662 0.40217,0.867831 0.40217,2.042577 z m -5.968982,0 q 0,1.428745 0.603252,2.254243 0.60324,0.814914 1.88382,0.814914 1.29117,0 1.88383,-0.814914 0.59267,-0.825498 0.59267,-2.254243 0,-1.428745 -0.59267,-2.233076 -0.59266,-0.814914 -1.87324,-0.814914 -1.28058,0 -1.89441,0.814914 -0.603252,0.804331 -0.603252,2.233076 z"
         style="stroke-width:0.264583"
         id="path1060" />
      <path
         d="m 109.20738,71.898991 q 1.40758,0 2.07433,0.539749 0.67733,0.529165 0.67733,1.608661 0,0.603248 -0.22225,1.005414 -0.22225,0.402165 -0.5715,0.645581 -0.33866,0.232832 -0.71966,0.370415 l 2.07432,3.386656 h -1.11124 l -1.83091,-3.122073 h -1.50283 v 3.122073 h -0.9525 v -7.556476 z m -0.0529,0.825498 h -1.0795 v 2.804574 h 1.13241 q 0.92075,0 1.34408,-0.359832 0.42333,-0.370416 0.42333,-1.079497 0,-0.740831 -0.4445,-1.047746 -0.44449,-0.317499 -1.37582,-0.317499 z"
         style="stroke-width:0.264583"
         id="path1062" />
      <path
         d="m 115.83252,79.455467 h -2.73049 v -0.550331 l 0.889,-0.201083 v -6.043064 l -0.889,-0.211666 v -0.550332 h 2.73049 v 0.550332 l -0.88899,0.211666 v 6.043064 l 0.88899,0.201083 z"
         style="stroke-width:0.264583"
         id="path1064" />
      <path
         d="m 121.90732,79.455467 h -5.23873 v -0.719664 l 3.97932,-5.990148 h -3.85232 v -0.846664 h 5.0059 v 0.719665 l -3.97932,5.990147 h 4.08515 z"
         style="stroke-width:0.264583"
         id="path1066" />
      <path
         d="m 129.8342,75.666646 q 0,1.174746 -0.40216,2.05316 -0.39159,0.867831 -1.16417,1.354662 -0.77258,0.486832 -1.91557,0.486832 -1.17475,0 -1.95791,-0.486832 -0.77259,-0.486831 -1.15358,-1.365245 -0.381,-0.878414 -0.381,-2.05316 0,-1.164163 0.381,-2.031994 0.38099,-0.86783 1.15358,-1.354662 0.78316,-0.486832 1.96849,-0.486832 1.13241,0 1.90499,0.486832 0.77258,0.476248 1.16417,1.354662 0.40216,0.867831 0.40216,2.042577 z m -5.96898,0 q 0,1.428745 0.60325,2.254243 0.60325,0.814914 1.88383,0.814914 1.29116,0 1.88382,-0.814914 0.59267,-0.825498 0.59267,-2.254243 0,-1.428745 -0.59267,-2.233076 -0.59266,-0.814914 -1.87324,-0.814914 -1.28058,0 -1.89441,0.814914 -0.60325,0.804331 -0.60325,2.233076 z"
         style="stroke-width:0.264583"
         id="path1068" />
      <path
         d="m 137.49649,79.455467 h -1.11125 l -4.04282,-6.275896 h -0.0423 q 0.0212,0.370415 0.0529,0.920747 0.0317,0.550331 0.0317,1.132413 v 4.222736 h -0.87842 v -7.556476 h 1.10067 l 4.03223,6.25473 h 0.0423 q -0.0106,-0.169332 -0.0317,-0.507998 -0.0106,-0.338666 -0.0318,-0.740831 -0.0106,-0.402165 -0.0106,-0.740831 v -4.26507 h 0.889 z"
         style="stroke-width:0.264583"
         id="path1070" />
      <path
         d="m 141.94146,79.455467 h -0.9525 v -6.720395 h -2.36007 v -0.836081 h 5.66206 v 0.836081 h -2.34949 z"
         style="stroke-width:0.264583"
         id="path1072" />
      <path
         d="m 149.43441,79.455467 -0.91016,-2.338909 h -2.99507 l -0.89958,2.338909 h -0.96308 l 2.95274,-7.588226 h 0.85724 l 2.94216,7.588226 z m -1.19591,-3.185573 -0.84666,-2.285993 q -0.0317,-0.08467 -0.10584,-0.306915 -0.0741,-0.22225 -0.14816,-0.455082 -0.0635,-0.243416 -0.10584,-0.370416 -0.0741,0.328083 -0.16933,0.645582 -0.0953,0.306915 -0.15875,0.486831 l -0.85724,2.285993 z"
         style="stroke-width:0.264583"
         id="path1074" />
      <path
         d="m 151.45583,79.455467 v -7.556476 h 0.95249 v 6.709812 h 3.30199 v 0.846664 z"
         style="stroke-width:0.264583"
         id="path1076" />
      <path
         d="m 164.49442,79.455467 -0.91017,-2.338909 h -2.99507 l -0.89958,2.338909 h -0.96308 l 2.95274,-7.588226 h 0.85724 l 2.94216,7.588226 z m -1.19592,-3.185573 -0.84666,-2.285993 q -0.0318,-0.08467 -0.10583,-0.306915 -0.0741,-0.22225 -0.14817,-0.455082 -0.0635,-0.243416 -0.10583,-0.370416 -0.0741,0.328083 -0.16934,0.645582 -0.0953,0.306915 -0.15875,0.486831 l -0.85724,2.285993 z"
         style="stroke-width:0.264583"
         id="path1078" />
      <path
         d="m 172.56947,75.603146 q 0,1.915577 -1.04775,2.889241 -1.03716,0.96308 -2.89982,0.96308 h -2.10608 v -7.556476 h 2.32833 q 1.14299,0 1.97908,0.423332 0.83608,0.423332 1.29116,1.24883 0.45508,0.814914 0.45508,2.031993 z m -1.00541,0.03175 q 0,-1.513412 -0.75142,-2.21191 -0.74083,-0.709081 -2.10607,-0.709081 h -1.23825 v 5.926648 h 1.02658 q 3.06916,0 3.06916,-3.005657 z"
         style="stroke-width:0.264583"
         id="path1080" />
      <path
         d="m 178.52787,77.434057 q 0,1.005413 -0.73025,1.566328 -0.73025,0.560915 -1.9685,0.560915 -0.63499,0 -1.17474,-0.09525 -0.53975,-0.09525 -0.89958,-0.264583 v -0.910164 q 0.381,0.169333 0.94191,0.306916 0.5715,0.137583 1.17475,0.137583 0.84666,0 1.26999,-0.328082 0.43392,-0.328083 0.43392,-0.888998 0,-0.370415 -0.15875,-0.624414 -0.15875,-0.253999 -0.55033,-0.465665 -0.381,-0.22225 -1.06892,-0.465666 -0.96308,-0.349249 -1.46049,-0.857247 -0.48683,-0.507998 -0.48683,-1.386412 0,-0.603248 0.30691,-1.02658 0.30692,-0.433916 0.84667,-0.666748 0.55033,-0.232833 1.25941,-0.232833 0.62441,0 1.143,0.116417 0.51858,0.116416 0.94191,0.306915 l -0.29633,0.814914 q -0.39158,-0.169332 -0.85725,-0.285749 -0.45508,-0.116416 -0.9525,-0.116416 -0.70908,0 -1.06891,0.306916 -0.35983,0.296332 -0.35983,0.793747 0,0.380999 0.15875,0.634998 0.15875,0.253999 0.51858,0.455082 0.35983,0.201083 0.97366,0.433915 0.66675,0.243416 1.12183,0.529165 0.46567,0.275166 0.6985,0.666748 0.24342,0.391582 0.24342,0.984247 z"
         style="stroke-width:0.264583"
         id="path1082" />
      <path
         d="m 187.28023,79.455467 h -4.99532 v -0.772581 l 1.97908,-2.000243 q 0.5715,-0.571498 0.96308,-1.015997 0.39158,-0.444499 0.59267,-0.867831 0.20108,-0.433915 0.20108,-0.941913 0,-0.624415 -0.37042,-0.941914 -0.37041,-0.328082 -0.96308,-0.328082 -0.55033,0 -0.97366,0.190499 -0.41275,0.1905 -0.84666,0.529165 l -0.49742,-0.624415 q 0.4445,-0.370415 1.016,-0.624414 0.58208,-0.264583 1.30174,-0.264583 1.05833,0 1.67217,0.539749 0.61383,0.529165 0.61383,1.471078 0,0.592665 -0.24342,1.111247 -0.24342,0.518581 -0.67733,1.02658 -0.43392,0.497415 -1.016,1.068913 l -1.57691,1.555745 v 0.04233 h 3.82057 z"
         style="stroke-width:0.264583"
         id="path1084" />
    </g>
  </g>
</svg>
