<?xml version="1.0" encoding="UTF-8" standalone="no"?>
<svg
   xmlns:dc="http://purl.org/dc/elements/1.1/"
   xmlns:cc="http://creativecommons.org/ns#"
   xmlns:rdf="http://www.w3.org/1999/02/22-rdf-syntax-ns#"
   xmlns:svg="http://www.w3.org/2000/svg"
   xmlns="http://www.w3.org/2000/svg"
   xmlns:xlink="http://www.w3.org/1999/xlink"
   xmlns:sodipodi="http://sodipodi.sourceforge.net/DTD/sodipodi-0.dtd"
   xmlns:inkscape="http://www.inkscape.org/namespaces/inkscape"
   inkscape:export-ydpi="122.02551"
   inkscape:export-xdpi="122.02551"
   inkscape:export-filename="/home/taufik/Documents/export/e/favic.png"
   inkscape:version="1.0.1 (1.0.1+r73)"
   sodipodi:docname="brand-icon.svg"
   id="svg1592"
   version="1.1"
   viewBox="0 0 37.720482 37.720482"
   height="37.720482mm"
   width="37.720482mm">
  <sodipodi:namedview
     inkscape:current-layer="svg1592"
     inkscape:window-maximized="1"
     inkscape:window-y="0"
     inkscape:window-x="0"
     inkscape:cy="78.327835"
     inkscape:cx="115.89882"
     inkscape:zoom="2.4180672"
     showgrid="false"
     id="namedview1048"
     inkscape:window-height="709"
     inkscape:window-width="1366"
     inkscape:pageshadow="2"
     inkscape:pageopacity="0"
     guidetolerance="10"
     gridtolerance="10"
     objecttolerance="10"
     borderopacity="1"
     bordercolor="#666666"
     pagecolor="#ffffff"
     inkscape:document-rotation="0" />
  <defs
     id="defs1586">
    <inkscape:path-effect
       hide_knots="false"
       only_selected="false"
       apply_with_radius="true"
       apply_no_radius="true"
       use_knot_distance="true"
       flexible="false"
       chamfer_steps="1"
       radius="0"
       mode="F"
       method="auto"
       unit="px"
       satellites_param="F,0,0,1,0,0,0,1 @ F,0,0,1,0,0,0,1 @ F,0,0,1,0,0,0,1 @ F,0,0,1,0,0,0,1 | F,0,0,1,0,0,0,1 @ F,0,0,1,0,0,0,1 @ F,0,0,1,0,0,0,1 @ F,0,0,1,0,0,0,1 @ F,0,0,1,0,0,0,1 @ F,0,0,1,0,0,0,1 @ F,0,0,1,0,0,0,1 @ F,0,0,1,0,0,0,1 @ F,0,0,1,0,0,0,1 @ F,0,0,1,0,0,0,1 | F,0,0,1,0,2.745469,0,1 @ F,0,1,1,0,2.745469,0,1 @ F,0,1,1,0,2.745469,0,1 @ F,0,1,1,0,2.745469,0,1 | F,0,0,1,0,0,0,1 @ F,0,0,1,0,0,0,1 @ F,0,0,1,0,0,0,1 @ F,0,0,1,0,0,0,1 @ F,0,0,1,0,0,0,1 @ F,0,0,1,0,0,0,1 @ F,0,0,1,0,0,0,1 @ F,0,0,1,0,0,0,1 @ F,0,0,1,0,0,0,1 @ F,0,0,1,0,0,0,1 @ F,0,0,1,0,0,0,1 @ F,0,0,1,0,0,0,1 @ F,0,0,1,0,0,0,1 @ F,0,0,1,0,0,0,1 @ F,0,0,1,0,0,0,1 @ F,0,0,1,0,0,0,1 @ F,0,0,1,0,0,0,1 @ F,0,0,1,0,0,0,1 @ F,0,0,1,0,0,0,1 @ F,0,0,1,0,0,0,1 @ F,0,0,1,0,0,0,1 @ F,0,0,1,0,0,0,1 @ F,0,0,1,0,0,0,1 @ F,0,0,1,0,0,0,1 @ F,0,0,1,0,0,0,1 | F,0,0,1,0,3.1525886,0,1 @ F,0,0,1,0,3.1525886,0,1 @ F,0,0,1,0,3.1525886,0,1 @ F,0,0,1,0,3.1525886,0,1 | F,0,0,1,0,0,0,1 @ F,0,0,1,0,0,0,1 @ F,0,0,1,0,0,0,1 @ F,0,0,1,0,0,0,1 @ F,0,0,1,0,0,0,1 @ F,0,0,1,0,0,0,1 @ F,0,0,1,0,0,0,1 @ F,0,0,1,0,0,0,1 @ F,0,0,1,0,0,0,1 @ F,0,0,1,0,0,0,1 @ F,0,0,1,0,0,0,1 | F,0,0,1,0,3.7812634,0,1 @ F,0,0,1,0,3.7812634,0,1 @ F,0,0,1,0,3.7812634,0,1 @ F,0,0,1,0,3.7812634,0,1 | F,0,0,1,0,3.0346129,0,1 @ F,0,0,1,0,3.0346129,0,1 @ F,0,0,1,0,3.0346129,0,1 @ F,0,0,1,0,3.0346129,0,1 | F,0,0,1,0,0,0,1 @ F,0,0,1,0,0,0,1 @ F,0,0,1,0,0,0,1 @ F,0,0,1,0,0,0,1 | F,0,0,1,0,0,0,1 @ F,0,0,1,0,0,0,1 @ F,0,0,1,0,0,0,1 @ F,0,0,1,0,0,0,1 @ F,0,0,1,0,0,0,1 @ F,0,0,1,0,0,0,1 @ F,0,0,1,0,0,0,1 @ F,0,0,1,0,0,0,1 | F,0,0,1,0,0,0,1 @ F,0,0,1,0,0,0,1 @ F,0,0,1,0,0,0,1 @ F,0,0,1,0,0,0,1 @ F,0,0,1,0,0,0,1 @ F,0,0,1,0,0,0,1 @ F,0,0,1,0,0,0,1 @ F,0,0,1,0,0,0,1 | F,0,0,1,0,0,0,1 @ F,0,0,1,0,0,0,1 @ F,0,0,1,0,0,0,1 @ F,0,0,1,0,0,0,1 @ F,0,0,1,0,0,0,1 @ F,0,0,1,0,0,0,1 @ F,0,0,1,0,0,0,1 @ F,0,0,1,0,0,0,1 @ F,0,0,1,0,0,0,1 @ F,0,0,1,0,0,0,1 @ F,0,0,1,0,0,0,1 @ F,0,0,1,0,0,0,1 @ F,0,0,1,0,0,0,1 @ F,0,0,1,0,0,0,1 @ F,0,0,1,0,0,0,1 @ F,0,0,1,0,0,0,1 @ F,0,0,1,0,0,0,1 | F,0,0,1,0,2.8966099,0,1 @ F,0,0,1,0,2.8966099,0,1 @ F,0,0,1,0,2.8966099,0,1 @ F,0,0,1,0,2.8966099,0,1 | F,0,0,1,0,0,0,1 @ F,0,0,1,0,0,0,1 @ F,0,0,1,0,0,0,1 @ F,0,0,1,0,0,0,1"
       lpeversion="1"
       is_visible="true"
       id="path-effect1884"
       effect="fillet_chamfer" />
    <linearGradient
       inkscape:collect="always"
       id="linearGradient1882">
      <stop
         style="stop-color:#6087b5;stop-opacity:1"
         offset="0"
         id="stop1878" />
      <stop
         style="stop-color:#2ed3e7;stop-opacity:1"
         offset="1"
         id="stop1880" />
    </linearGradient>
    <linearGradient
       id="linearGradient1849"
       inkscape:collect="always">
      <stop
         id="stop1845"
         offset="0"
         style="stop-color:#6087b5;stop-opacity:1" />
      <stop
         id="stop1847"
         offset="1"
         style="stop-color:#2ed3e7;stop-opacity:1" />
    </linearGradient>
    <clipPath
       id="clipPath2161"
       clipPathUnits="userSpaceOnUse">
      <rect
         style="fill:#502d16;fill-opacity:0.839216;fill-rule:evenodd;stroke:none;stroke-width:0.958056;stroke-linecap:square;stroke-linejoin:miter;stroke-miterlimit:4;stroke-dasharray:none;stroke-dashoffset:0;paint-order:markers stroke fill"
         id="rect2163"
         width="146.22527"
         height="146.22527"
         x="25.191084"
         y="59.936195" />
    </clipPath>
    <linearGradient
       gradientTransform="matrix(0.94767506,0.94767506,-0.94767506,0.94767506,-19.728258,-54.751745)"
       gradientUnits="userSpaceOnUse"
       y2="9.7833824"
       x2="67.893013"
       y1="26.981298"
       x1="50.695099"
       id="linearGradient1851"
       xlink:href="#linearGradient1849"
       inkscape:collect="always" />
    <linearGradient
       gradientTransform="matrix(0.25073903,0.25073903,-0.25073903,0.25073903,-19.728258,-54.751745)"
       gradientUnits="userSpaceOnUse"
       y2="36.976562"
       x2="256.60352"
       y1="101.97656"
       x1="191.60352"
       id="linearGradient1876"
       xlink:href="#linearGradient1882"
       inkscape:collect="always" />
  </defs>
  <metadata
     id="metadata1589">
    <rdf:RDF>
      <cc:Work
         rdf:about="">
        <dc:format>image/svg+xml</dc:format>
        <dc:type
           rdf:resource="http://purl.org/dc/dcmitype/StillImage" />
        <dc:title></dc:title>
      </cc:Work>
    </rdf:RDF>
  </metadata>
  <path
     d="m 19.042757,2.5622035 -1.253695,1.2536955 8.775867,8.775867 1.253696,-1.253695 z m 10.029562,10.0295625 -1.253696,1.253697 2.507391,2.50739 -1.253695,1.253695 -5.014781,-5.014783 -1.253696,1.253695 5.014781,5.014782 1.253696,1.253696 1.253695,-1.253696 2.50739,-2.50739 z m 4.326385,5.703178 A 0.89075941,0.89075941 0 0 0 33.521808,19.54864 0.89075941,0.89075941 0 0 0 34.775504,19.425536 0.89075941,0.89075941 0 0 0 34.6524,18.17184 0.89075941,0.89075941 0 0 0 33.398704,18.294944 Z M 16.535366,5.0695942 14.027977,7.5769841 12.77428,8.8306792 11.520586,10.084375 10.26689,11.338069 9.0131951,12.591765 7.7595,13.84546 l -2.5073914,2.507392 1.2536957,1.253696 5.0147797,5.014779 1.253696,-1.253696 5.014782,-5.014779 -5.01478,-5.014781 1.253695,-1.253696 5.01478,5.014781 1.253696,-1.253696 1.253694,-1.253695 1.253695,-1.253694 -1.253695,-1.253696 -2.50739,-2.50739 -1.253695,1.2536952 2.50739,2.5073908 -1.253695,1.253694 -3.761085,-3.7610851 2.50739,-2.50739 z M 30.789232,20.904414 a 0.91620141,0.91620141 0 0 0 0.327259,1.253696 0.91620141,0.91620141 0 0 0 1.253696,-0.32726 0.91620141,0.91620141 0 0 0 -0.32726,-1.253694 0.91620141,0.91620141 0 0 0 -1.253695,0.327258 z m -9.239085,-5.805258 -2.50739,2.50739 -1.253695,1.253695 7.522172,7.522173 1.253695,1.253695 1.253696,-1.253695 2.507389,-2.507391 -1.253695,-1.253696 -2.50739,2.507391 -6.268476,-6.268476 2.50739,-2.50739 z m 1.559282,3.455502 a 0.99614026,0.99614026 0 0 0 0.642525,1.253695 0.99614026,0.99614026 0 0 0 1.253696,-0.642527 0.99614026,0.99614026 0 0 0 -0.642525,-1.253693 0.99614026,0.99614026 0 0 0 -1.253696,0.642525 z m 2.694604,2.320176 a 0.90653944,0.90653944 0 0 0 0.268096,1.253694 0.90653944,0.90653944 0 0 0 1.253696,-0.268097 0.90653944,0.90653944 0 0 0 -0.268097,-1.253695 0.90653944,0.90653944 0 0 0 -1.253695,0.268098 z m -14.283447,-8.283069 1.253696,1.253695 -1.253696,1.253697 -1.253695,-1.253697 z m 2.507391,2.507391 1.253695,1.253696 -3.761086,3.761085 -3.7610855,-3.761085 1.2536953,-1.253695 1.2536952,1.253695 1.253695,1.253694 1.253694,-1.253694 z m 2.507389,5.014781 -5.01478,5.01478 -7.5221715,-7.522171 -1.2536951,1.253695 7.5221716,7.522172 1.253696,1.253696 1.253695,-1.253695 5.014782,-5.014781 z m 2.507392,2.50739 -1.253694,1.253696 -2.507392,2.507391 1.253694,1.253696 1.253696,1.253695 -1.253694,1.253694 -2.507391,-2.50739 -1.253695,1.253694 2.507391,2.507391 2.507391,2.50739 1.253694,1.253695 1.253695,-1.253695 2.50739,-2.50739 -1.253694,-1.253695 -2.507391,2.507389 -1.253694,-1.253694 5.014779,-5.01478 z m 4.288487,5.741075 a 0.89758269,0.89758269 0 0 0 0.198892,1.253694 0.89758269,0.89758269 0 0 0 1.253696,-0.198891 0.89758269,0.89758269 0 0 0 -0.198894,-1.253695 0.89758269,0.89758269 0 0 0 -1.253694,0.198892 z m -4.288487,-3.233684 1.253695,1.253696 -1.253695,1.253695 -1.253694,-1.253695 z"
     style="opacity:1;fill:url(#linearGradient1851);fill-opacity:1;fill-rule:evenodd;stroke:url(#linearGradient1876);stroke-width:0.709197;stroke-linecap:round;stroke-linejoin:round;stroke-miterlimit:4;stroke-dasharray:none;stroke-opacity:1;paint-order:markers fill stroke"
     id="path1787" />
</svg>
