<?xml version="1.0" encoding="UTF-8" standalone="no"?>
<svg
   xmlns:dc="http://purl.org/dc/elements/1.1/"
   xmlns:cc="http://creativecommons.org/ns#"
   xmlns:rdf="http://www.w3.org/1999/02/22-rdf-syntax-ns#"
   xmlns:svg="http://www.w3.org/2000/svg"
   xmlns="http://www.w3.org/2000/svg"
   width="105.8335mm"
   height="79.375015mm"
   viewBox="0 0 105.8335 79.375014"
   version="1.1"
   id="svg8">
  <defs
     id="defs2" />
  <metadata
     id="metadata5">
    <rdf:RDF>
      <cc:Work
         rdf:about="">
        <dc:format>image/svg+xml</dc:format>
        <dc:type
           rdf:resource="http://purl.org/dc/dcmitype/StillImage" />
        <dc:title />
      </cc:Work>
    </rdf:RDF>
  </metadata>
  <g
     id="layer1"
     transform="translate(-102.4495,-167.05347)">
    <g
       id="noimage4by3">
      <rect
         style="fill:#8dbbfe;fill-opacity:1;stroke-width:0.264999"
         id="rect869"
         width="105.83334"
         height="79.375"
         x="102.44966"
         y="167.05348" />
      <path
         id="path871"
         style="opacity:0.2;fill:#000000;fill-opacity:1;stroke-width:0.264999"
         d="m 102.4495,167.05347 v 30.86943 a 33.408699,33.408699 0 0 0 31.03893,-30.86943 z" />
      <g
         id="g1037">
        <path
           d="m 131.93495,199.08396 v 4.82598 h -1.4605 v -7.51414 h 1.16416 l 3.88407,4.95298 v -4.9424 h 1.4605 v 7.50356 h -1.21708 z"
           style="font-style:normal;font-variant:normal;font-weight:bold;font-stretch:normal;font-size:10.5833px;line-height:1.25;font-family:Raleway;-inkscape-font-specification:'Raleway Bold';text-align:center;text-anchor:middle;fill:#ffffff;stroke-width:0.264583"
           id="path918" />
        <path
           d="m 141.75623,203.96286 q -0.8255,0 -1.50283,-0.3175 -0.66674,-0.3175 -1.15358,-0.85725 -0.47624,-0.55033 -0.74083,-1.22766 -0.26458,-0.68791 -0.26458,-1.40758 0,-0.75141 0.27517,-1.42874 0.28575,-0.68792 0.77258,-1.21708 0.49741,-0.53975 1.16416,-0.84667 0.67733,-0.3175 1.48166,-0.3175 0.81492,0 1.48166,0.32809 0.67734,0.32808 1.15358,0.87841 0.47625,0.55033 0.74083,1.22766 0.26459,0.67733 0.26459,1.397 0,0.74083 -0.27517,1.42874 -0.27516,0.67733 -0.77258,1.21708 -0.48683,0.52917 -1.16416,0.83608 -0.66675,0.30692 -1.4605,0.30692 z m -2.18016,-3.80999 q 0,0.48683 0.14817,0.94191 0.14816,0.45509 0.42333,0.81492 0.28575,0.34925 0.68792,0.56091 0.41274,0.20109 0.93133,0.20109 0.52916,0 0.94191,-0.21167 0.41275,-0.22225 0.68791,-0.58208 0.27517,-0.37042 0.41275,-0.81491 0.14817,-0.45509 0.14817,-0.91017 0,-0.48683 -0.15875,-0.93133 -0.14817,-0.45508 -0.43392,-0.80433 -0.27516,-0.35983 -0.68791,-0.56091 -0.40217,-0.21167 -0.91016,-0.21167 -0.53975,0 -0.9525,0.22225 -0.40217,0.21166 -0.67733,0.5715 -0.27517,0.35983 -0.42333,0.80433 -0.13759,0.4445 -0.13759,0.91016 z"
           style="font-style:normal;font-variant:normal;font-weight:bold;font-stretch:normal;font-size:10.5833px;line-height:1.25;font-family:Raleway;-inkscape-font-specification:'Raleway Bold';text-align:center;text-anchor:middle;fill:#ffffff;stroke-width:0.264583"
           id="path920" />
        <path
           d="m 149.09044,203.90994 v -7.51414 h 1.4605 v 7.51414 z"
           style="font-style:normal;font-variant:normal;font-weight:bold;font-stretch:normal;font-size:10.5833px;line-height:1.25;font-family:Raleway;-inkscape-font-specification:'Raleway Bold';text-align:center;text-anchor:middle;fill:#ffffff;stroke-width:0.264583"
           id="path922" />
        <path
           d="m 158.24499,203.90994 v -4.93182 l -1.92616,3.67241 h -0.81492 l -1.92616,-3.67241 v 4.93182 h -1.46049 v -7.51414 h 1.56633 l 2.22249,4.27565 2.24366,-4.27565 h 1.55574 v 7.51414 z"
           style="font-style:normal;font-variant:normal;font-weight:bold;font-stretch:normal;font-size:10.5833px;line-height:1.25;font-family:Raleway;-inkscape-font-specification:'Raleway Bold';text-align:center;text-anchor:middle;fill:#ffffff;stroke-width:0.264583"
           id="path924" />
        <path
           d="m 163.31439,196.3958 h 1.48166 l 2.76224,7.51414 h -1.50283 l -0.6985,-1.87324 h -2.62466 l -0.68791,1.87324 h -1.50283 z m 1.77799,4.61432 -1.03716,-3.10091 -1.0795,3.10091 z"
           style="font-style:normal;font-variant:normal;font-weight:bold;font-stretch:normal;font-size:10.5833px;line-height:1.25;font-family:Raleway;-inkscape-font-specification:'Raleway Bold';text-align:center;text-anchor:middle;fill:#ffffff;stroke-width:0.264583"
           id="path926" />
        <path
           d="m 171.2201,203.96286 q -0.73025,0 -1.38642,-0.29633 -0.64558,-0.29634 -1.14299,-0.81492 -0.48683,-0.52916 -0.762,-1.22766 -0.27517,-0.6985 -0.27517,-1.51341 0,-0.77258 0.27517,-1.44991 0.27517,-0.68792 0.77258,-1.2065 0.49742,-0.51858 1.16416,-0.81491 0.66675,-0.29634 1.44992,-0.29634 1.05833,0 1.80974,0.45509 0.762,0.44449 1.143,1.18532 l -1.09008,0.80434 q -0.28575,-0.56092 -0.80433,-0.85725 -0.508,-0.29633 -1.11125,-0.29633 -0.47625,0 -0.86783,0.20108 -0.39158,0.20108 -0.67733,0.55033 -0.28575,0.34925 -0.4445,0.80433 -0.14817,0.45508 -0.14817,0.96308 0,0.53975 0.15875,0.99483 0.16934,0.45508 0.46567,0.79375 0.30691,0.33866 0.70908,0.53975 0.40216,0.1905 0.889,0.1905 0.57149,0 1.09008,-0.29634 0.52916,-0.29633 0.98424,-0.86783 v 1.43933 q -0.94191,1.016 -2.20132,1.016 z m 2.09549,-2.84691 h -1.51341 v -1.06891 h 2.71991 v 3.8629 h -1.2065 z"
           style="font-style:normal;font-variant:normal;font-weight:bold;font-stretch:normal;font-size:10.5833px;line-height:1.25;font-family:Raleway;-inkscape-font-specification:'Raleway Bold';text-align:center;text-anchor:middle;fill:#ffffff;stroke-width:0.264583"
           id="path928" />
        <path
           d="m 180.98846,202.62936 v 1.28058 h -5.21756 v -7.51414 h 5.12231 v 1.28058 h -3.66182 v 1.80974 h 3.16441 v 1.18533 h -3.16441 v 1.95791 z"
           style="font-style:normal;font-variant:normal;font-weight:bold;font-stretch:normal;font-size:10.5833px;line-height:1.25;font-family:Raleway;-inkscape-font-specification:'Raleway Bold';text-align:center;text-anchor:middle;fill:#ffffff;stroke-width:0.264583"
           id="path930" />
        <path
           d="m 130.24163,209.62492 h 1.48166 l 2.76224,7.51415 h -1.50283 l -0.6985,-1.87325 h -2.62466 l -0.68791,1.87325 h -1.50283 z m 1.77799,4.61432 -1.03716,-3.1009 -1.0795,3.1009 z"
           style="font-style:normal;font-variant:normal;font-weight:bold;font-stretch:normal;font-size:10.5833px;line-height:1.25;font-family:Raleway;-inkscape-font-specification:'Raleway Bold';text-align:center;text-anchor:middle;fill:#ffffff;stroke-width:0.264583"
           id="path932" />
        <path
           d="m 135.46976,209.62492 2.03199,5.77849 2.01083,-5.77849 h 1.53458 l -2.84691,7.51415 h -1.40758 l -2.85749,-7.51415 z"
           style="font-style:normal;font-variant:normal;font-weight:bold;font-stretch:normal;font-size:10.5833px;line-height:1.25;font-family:Raleway;-inkscape-font-specification:'Raleway Bold';text-align:center;text-anchor:middle;fill:#ffffff;stroke-width:0.264583"
           id="path934" />
        <path
           d="m 143.28021,209.62492 h 1.48167 l 2.76224,7.51415 h -1.50283 l -0.6985,-1.87325 h -2.62466 l -0.68791,1.87325 h -1.50283 z m 1.778,4.61432 -1.03716,-3.1009 -1.0795,3.1009 z"
           style="font-style:normal;font-variant:normal;font-weight:bold;font-stretch:normal;font-size:10.5833px;line-height:1.25;font-family:Raleway;-inkscape-font-specification:'Raleway Bold';text-align:center;text-anchor:middle;fill:#ffffff;stroke-width:0.264583"
           id="path936" />
        <path
           d="m 148.3496,217.13907 v -7.51415 h 1.4605 v 7.51415 z"
           style="font-style:normal;font-variant:normal;font-weight:bold;font-stretch:normal;font-size:10.5833px;line-height:1.25;font-family:Raleway;-inkscape-font-specification:'Raleway Bold';text-align:center;text-anchor:middle;fill:#ffffff;stroke-width:0.264583"
           id="path938" />
        <path
           d="m 151.37642,217.13907 v -7.51415 h 1.4605 v 6.23357 h 3.83115 v 1.28058 z"
           style="font-style:normal;font-variant:normal;font-weight:bold;font-stretch:normal;font-size:10.5833px;line-height:1.25;font-family:Raleway;-inkscape-font-specification:'Raleway Bold';text-align:center;text-anchor:middle;fill:#ffffff;stroke-width:0.264583"
           id="path940" />
        <path
           d="m 159.59964,209.62492 h 1.48166 l 2.76224,7.51415 h -1.50282 l -0.6985,-1.87325 h -2.62466 l -0.68792,1.87325 h -1.50282 z m 1.77799,4.61432 -1.03716,-3.1009 -1.07949,3.1009 z"
           style="font-style:normal;font-variant:normal;font-weight:bold;font-stretch:normal;font-size:10.5833px;line-height:1.25;font-family:Raleway;-inkscape-font-specification:'Raleway Bold';text-align:center;text-anchor:middle;fill:#ffffff;stroke-width:0.264583"
           id="path942" />
        <path
           d="m 170.72268,215.20232 q 0,0.635 -0.32808,1.06892 -0.32809,0.42333 -0.889,0.64558 -0.55033,0.22225 -1.2065,0.22225 h -3.63007 v -7.51415 h 4.02165 q 0.52917,0 0.91017,0.28575 0.39158,0.27517 0.59266,0.71967 0.21167,0.43391 0.21167,0.91016 0,0.53975 -0.27517,1.02658 -0.27516,0.48683 -0.80433,0.71967 0.64558,0.1905 1.016,0.68791 0.381,0.49742 0.381,1.22766 z m -1.47108,-0.27516 q 0,-0.28575 -0.11642,-0.508 -0.11641,-0.23283 -0.3175,-0.35983 -0.1905,-0.13759 -0.44449,-0.13759 h -2.24366 v 1.97908 h 2.16957 q 0.26459,0 0.47625,-0.127 0.22225,-0.13758 0.34925,-0.35983 0.127,-0.22225 0.127,-0.48683 z m -3.12207,-4.05341 v 1.89441 h 1.94732 q 0.24342,0 0.4445,-0.11641 0.20108,-0.11642 0.3175,-0.32808 0.127,-0.21167 0.127,-0.508 0,-0.28575 -0.11642,-0.49742 -0.10583,-0.21166 -0.29633,-0.32808 -0.17991,-0.11642 -0.41275,-0.11642 z"
           style="font-style:normal;font-variant:normal;font-weight:bold;font-stretch:normal;font-size:10.5833px;line-height:1.25;font-family:Raleway;-inkscape-font-specification:'Raleway Bold';text-align:center;text-anchor:middle;fill:#ffffff;stroke-width:0.264583"
           id="path944" />
        <path
           d="m 171.86566,217.13907 v -7.51415 h 1.46049 v 6.23357 h 3.83116 v 1.28058 z"
           style="font-style:normal;font-variant:normal;font-weight:bold;font-stretch:normal;font-size:10.5833px;line-height:1.25;font-family:Raleway;-inkscape-font-specification:'Raleway Bold';text-align:center;text-anchor:middle;fill:#ffffff;stroke-width:0.264583"
           id="path946" />
        <path
           d="m 183.26387,215.85849 v 1.28058 h -5.21757 v -7.51415 h 5.12232 v 1.28058 h -3.66182 v 1.80975 h 3.1644 v 1.18533 h -3.1644 v 1.95791 z"
           style="font-style:normal;font-variant:normal;font-weight:bold;font-stretch:normal;font-size:10.5833px;line-height:1.25;font-family:Raleway;-inkscape-font-specification:'Raleway Bold';text-align:center;text-anchor:middle;fill:#ffffff;stroke-width:0.264583"
           id="path948" />
      </g>
    </g>
  </g>
</svg>
