<?xml version="1.0" encoding="UTF-8" standalone="no"?>
<svg
   xmlns:dc="http://purl.org/dc/elements/1.1/"
   xmlns:cc="http://creativecommons.org/ns#"
   xmlns:rdf="http://www.w3.org/1999/02/22-rdf-syntax-ns#"
   xmlns:svg="http://www.w3.org/2000/svg"
   xmlns="http://www.w3.org/2000/svg"
   xmlns:sodipodi="http://sodipodi.sourceforge.net/DTD/sodipodi-0.dtd"
   xmlns:inkscape="http://www.inkscape.org/namespaces/inkscape"
   width="105.83334mm"
   height="52.916672mm"
   viewBox="0 0 105.83335 52.916672"
   version="1.1"
   id="svg8"
   inkscape:version="1.0.1 (1.0.1+r73)"
   sodipodi:docname="noimage.svg">
  <defs
     id="defs2">
    <clipPath
       clipPathUnits="userSpaceOnUse"
       id="clipPath875">
      <rect
         style="fill:#d5e5ff;fill-rule:evenodd;stroke-width:0.264583"
         id="rect877"
         width="192.61667"
         height="23.8125"
         x="10.824553"
         y="42.31002" />
    </clipPath>
    <mask
       maskUnits="userSpaceOnUse"
       id="mask896">
      <rect
         style="fill:#d5e5ff;fill-rule:evenodd;stroke-width:0.264583"
         id="rect898"
         width="192.61667"
         height="23.8125"
         x="10.824553"
         y="66.12252" />
    </mask>
  </defs>
  <sodipodi:namedview
     id="base"
     pagecolor="#ffffff"
     bordercolor="#666666"
     borderopacity="1.0"
     inkscape:pageopacity="0.0"
     inkscape:pageshadow="2"
     inkscape:zoom="0.98994949"
     inkscape:cx="203.20832"
     inkscape:cy="61.542191"
     inkscape:document-units="mm"
     inkscape:current-layer="layer1"
     inkscape:document-rotation="0"
     showgrid="false"
     inkscape:window-width="1366"
     inkscape:window-height="709"
     inkscape:window-x="0"
     inkscape:window-y="0"
     inkscape:window-maximized="1" />
  <metadata
     id="metadata5">
    <rdf:RDF>
      <cc:Work
         rdf:about="">
        <dc:format>image/svg+xml</dc:format>
        <dc:type
           rdf:resource="http://purl.org/dc/dcmitype/StillImage" />
        <dc:title></dc:title>
      </cc:Work>
    </rdf:RDF>
  </metadata>
  <g
     inkscape:label="Layer 1"
     inkscape:groupmode="layer"
     id="layer1"
     transform="translate(-30.90196,-145.57222)">
    <text
       xml:space="preserve"
       style="font-style:normal;font-weight:normal;font-size:10.5833px;line-height:1.25;font-family:sans-serif;fill:#000000;fill-opacity:1;stroke:none;stroke-width:0.264583"
       x="72.775795"
       y="56.670048"
       id="text906"><tspan
         sodipodi:role="line"
         id="tspan904"
         x="72.775795"
         y="56.670048"
         style="font-style:normal;font-variant:normal;font-weight:normal;font-stretch:normal;font-family:'Noto Sans';-inkscape-font-specification:'Noto Sans';stroke-width:0.264583" /><tspan
         sodipodi:role="line"
         x="72.775795"
         y="69.89917"
         style="font-style:normal;font-variant:normal;font-weight:normal;font-stretch:normal;font-family:'Noto Sans';-inkscape-font-specification:'Noto Sans';stroke-width:0.264583"
         id="tspan908" /></text>
    <path
       id="rect1291"
       style="fill:#d5e5ff;fill-opacity:1;stroke:none;stroke-width:0.249975"
       d="M 30.90196,145.57222 H 136.7353 v 52.91667 H 30.90196 Z" />
    <path
       id="path1363"
       style="fill:#5599ff;fill-opacity:1;stroke:none;stroke-width:0.999999"
       d="M 0 0 L 0 170.25781 A 145.05653 145.05653 0 0 0 17.021484 171.25977 A 145.05653 145.05653 0 0 0 162.07812 26.203125 A 145.05653 145.05653 0 0 0 159.69141 0 L 0 0 z "
       transform="matrix(0.26458333,0,0,0.26458333,30.90196,145.57222)" />
    <g
       aria-label="NO IMAGE"
       id="text1373"
       style="font-size:10.5833px;line-height:1.25;font-family:'Noto Sans';-inkscape-font-specification:'Noto Sans';fill:#1c2224;stroke-width:0.264583">
      <path
         d="m 64.445946,175.81409 h -1.111247 l -4.04282,-6.2759 h -0.04233 q 0.02117,0.37042 0.05292,0.92075 0.03175,0.55033 0.03175,1.13241 v 4.22274 h -0.878414 v -7.55648 h 1.100664 l 4.032237,6.25473 h 0.04233 q -0.01058,-0.16933 -0.03175,-0.508 -0.01058,-0.33866 -0.03175,-0.74083 -0.01058,-0.40216 -0.01058,-0.74083 v -4.26507 h 0.888997 z"
         style="fill:#1c2224;stroke-width:0.264583"
         id="path1375" />
      <path
         d="m 73.092484,172.02527 q 0,1.17474 -0.402165,2.05316 -0.391582,0.86783 -1.164163,1.35466 -0.772581,0.48683 -1.915577,0.48683 -1.174747,0 -1.957911,-0.48683 -0.772581,-0.48683 -1.15358,-1.36525 -0.380998,-0.87841 -0.380998,-2.05316 0,-1.16416 0.380998,-2.03199 0.380999,-0.86783 1.15358,-1.35466 0.783164,-0.48684 1.968494,-0.48684 1.132413,0 1.904994,0.48684 0.772581,0.47624 1.164163,1.35466 0.402165,0.86783 0.402165,2.04258 z m -5.968981,0 q 0,1.42874 0.603248,2.25424 0.603248,0.81491 1.883828,0.81491 1.291162,0 1.883827,-0.81491 0.592665,-0.8255 0.592665,-2.25424 0,-1.42875 -0.592665,-2.23308 -0.592665,-0.81491 -1.873244,-0.81491 -1.280579,0 -1.894411,0.81491 -0.603248,0.80433 -0.603248,2.23308 z"
         style="fill:#1c2224;stroke-width:0.264583"
         id="path1377" />
      <path
         d="m 79.64351,175.81409 h -2.730491 v -0.55033 l 0.888997,-0.20109 v -6.04306 l -0.888997,-0.21167 v -0.55033 h 2.730491 v 0.55033 l -0.888997,0.21167 v 6.04306 l 0.888997,0.20109 z"
         style="fill:#1c2224;stroke-width:0.264583"
         id="path1379" />
      <path
         d="m 84.437731,175.81409 -2.487075,-6.62515 h -0.04233 q 0.03175,0.32808 0.05292,0.889 0.02117,0.55033 0.02117,1.15358 v 4.58257 h -0.878414 v -7.55648 h 1.407579 l 2.328325,6.19123 h 0.04233 l 2.370659,-6.19123 h 1.396995 v 7.55648 h -0.941913 v -4.64607 q 0,-0.55033 0.02117,-1.09008 0.03175,-0.53975 0.05292,-0.87842 h -0.04233 l -2.518826,6.61457 z"
         style="fill:#1c2224;stroke-width:0.264583"
         id="path1381" />
      <path
         d="m 95.444359,175.81409 -0.910164,-2.33891 h -2.995074 l -0.89958,2.33891 H 89.67646 l 2.952741,-7.58823 h 0.857247 l 2.942157,7.58823 z m -1.195913,-3.18558 -0.846664,-2.28599 q -0.03175,-0.0847 -0.105833,-0.30691 -0.07408,-0.22225 -0.148166,-0.45509 -0.0635,-0.24341 -0.105833,-0.37041 -0.07408,0.32808 -0.169333,0.64558 -0.09525,0.30691 -0.15875,0.48683 l -0.857247,2.28599 z"
         style="fill:#1c2224;stroke-width:0.264583"
         id="path1383" />
      <path
         d="m 100.53492,171.82418 h 2.61408 v 3.70416 q -0.61383,0.20108 -1.23825,0.29633 -0.62441,0.0952 -1.41816,0.0952 -1.174747,0 -1.979077,-0.46567 -0.804331,-0.47624 -1.227663,-1.34407 -0.412749,-0.87842 -0.412749,-2.07433 0,-1.18533 0.465665,-2.05316 0.465666,-0.86783 1.333496,-1.34408 0.878414,-0.48683 2.116658,-0.48683 0.635,0 1.19591,0.11641 0.5715,0.11642 1.05833,0.32809 l -0.35983,0.82549 q -0.40216,-0.17991 -0.91016,-0.30691 -0.49742,-0.127 -1.03716,-0.127 -1.354667,0 -2.116664,0.81491 -0.751415,0.81492 -0.751415,2.23308 0,0.89958 0.28575,1.59808 0.296332,0.68791 0.920747,1.07949 0.624414,0.381 1.640412,0.381 0.49741,0 0.84666,-0.0529 0.34925,-0.0529 0.635,-0.127 v -2.24366 h -1.66158 z"
         style="fill:#1c2224;stroke-width:0.264583"
         id="path1385" />
      <path
         d="m 109.18146,175.81409 h -4.22273 v -7.55648 h 4.22273 v 0.83608 h -3.27023 v 2.36008 h 3.07974 v 0.82549 h -3.07974 v 2.69875 h 3.27023 z"
         style="fill:#1c2224;stroke-width:0.264583"
         id="path1387" />
    </g>
  </g>
</svg>
