<?xml version="1.0" encoding="UTF-8" standalone="no"?>
<svg
   xmlns:dc="http://purl.org/dc/elements/1.1/"
   xmlns:cc="http://creativecommons.org/ns#"
   xmlns:rdf="http://www.w3.org/1999/02/22-rdf-syntax-ns#"
   xmlns:svg="http://www.w3.org/2000/svg"
   xmlns="http://www.w3.org/2000/svg"
   width="79.375mm"
   height="79.375mm"
   viewBox="0 0 79.374999 79.374999"
   version="1.1"
   id="svg8">
  <defs
     id="defs2" />
  <metadata
     id="metadata5">
    <rdf:RDF>
      <cc:Work
         rdf:about="">
        <dc:format>image/svg+xml</dc:format>
        <dc:type
           rdf:resource="http://purl.org/dc/dcmitype/StillImage" />
        <dc:title />
      </cc:Work>
    </rdf:RDF>
  </metadata>
  <g
     id="layer1"
     transform="translate(-23.074497,-167.05347)">
    <g
       id="noimage1by1">
      <path
         id="rect865"
         style="fill:#8dbbfe;fill-opacity:1;stroke-width:30.6268"
         d="m 23.074497,167.05347 v 79.375 H 102.4495 v -79.375 z" />
      <path
         id="rect877"
         style="opacity:0.2;fill:#000000;fill-opacity:1;stroke-width:30.6268"
         d="m 23.074497,167.05347 v 27.12961 a 33.408699,33.408699 0 0 0 17.809766,-27.12961 z" />
      <g
         id="g1055">
        <path
           d="m 39.330605,199.08396 v 4.82598 H 37.87011 v -7.51414 h 1.164163 l 3.884071,4.95298 v -4.9424 h 1.460495 v 7.50356 H 43.16176 Z"
           style="font-style:normal;font-variant:normal;font-weight:bold;font-stretch:normal;font-size:10.5833px;line-height:1.25;font-family:Raleway;-inkscape-font-specification:'Raleway Bold';text-align:center;text-anchor:middle;fill:#ffffff;stroke-width:0.264583"
           id="path951" />
        <path
           d="m 49.151893,203.96286 q -0.825498,0 -1.502829,-0.3175 -0.666748,-0.3175 -1.15358,-0.85725 -0.476248,-0.55033 -0.740831,-1.22766 -0.264582,-0.68791 -0.264582,-1.40758 0,-0.75141 0.275166,-1.42874 0.285749,-0.68792 0.772581,-1.21708 0.497415,-0.53975 1.164163,-0.84667 0.677331,-0.3175 1.481661,-0.3175 0.814915,0 1.481662,0.32809 0.677332,0.32808 1.15358,0.87841 0.476249,0.55033 0.740831,1.22766 0.264583,0.67733 0.264583,1.397 0,0.74083 -0.275166,1.42874 -0.275166,0.67733 -0.772581,1.21708 -0.486832,0.52917 -1.164163,0.83608 -0.666748,0.30692 -1.460495,0.30692 z m -2.18016,-3.80999 q 0,0.48683 0.148166,0.94191 0.148166,0.45509 0.423332,0.81492 0.285749,0.34925 0.687915,0.56091 0.412748,0.20109 0.93133,0.20109 0.529165,0 0.941914,-0.21167 0.412748,-0.22225 0.687914,-0.58208 0.275166,-0.37042 0.412749,-0.81491 0.148166,-0.45509 0.148166,-0.91017 0,-0.48683 -0.15875,-0.93133 -0.148166,-0.45508 -0.433915,-0.80433 -0.275166,-0.35983 -0.687914,-0.56091 -0.402166,-0.21167 -0.910164,-0.21167 -0.539748,0 -0.952497,0.22225 -0.402165,0.21166 -0.677331,0.5715 -0.275166,0.35983 -0.423332,0.80433 -0.137583,0.4445 -0.137583,0.91016 z"
           style="font-style:normal;font-variant:normal;font-weight:bold;font-stretch:normal;font-size:10.5833px;line-height:1.25;font-family:Raleway;-inkscape-font-specification:'Raleway Bold';text-align:center;text-anchor:middle;fill:#ffffff;stroke-width:0.264583"
           id="path953" />
        <path
           d="m 56.486102,203.90994 v -7.51414 h 1.460495 v 7.51414 z"
           style="font-style:normal;font-variant:normal;font-weight:bold;font-stretch:normal;font-size:10.5833px;line-height:1.25;font-family:Raleway;-inkscape-font-specification:'Raleway Bold';text-align:center;text-anchor:middle;fill:#ffffff;stroke-width:0.264583"
           id="path955" />
        <path
           d="m 65.640648,203.90994 v -4.93182 l -1.926161,3.67241 h -0.814914 l -1.926161,-3.67241 v 4.93182 h -1.460495 v -7.51414 h 1.566328 l 2.222493,4.27565 2.24366,-4.27565 h 1.555745 v 7.51414 z"
           style="font-style:normal;font-variant:normal;font-weight:bold;font-stretch:normal;font-size:10.5833px;line-height:1.25;font-family:Raleway;-inkscape-font-specification:'Raleway Bold';text-align:center;text-anchor:middle;fill:#ffffff;stroke-width:0.264583"
           id="path957" />
        <path
           d="m 70.710046,196.3958 h 1.481662 l 2.762242,7.51414 h -1.502829 l -0.698498,-1.87324 h -2.624658 l -0.687915,1.87324 h -1.502828 z m 1.777995,4.61432 -1.037164,-3.10091 -1.079496,3.10091 z"
           style="font-style:normal;font-variant:normal;font-weight:bold;font-stretch:normal;font-size:10.5833px;line-height:1.25;font-family:Raleway;-inkscape-font-specification:'Raleway Bold';text-align:center;text-anchor:middle;fill:#ffffff;stroke-width:0.264583"
           id="path959" />
        <path
           d="m 78.615757,203.96286 q -0.730248,0 -1.386412,-0.29633 -0.645582,-0.29634 -1.142997,-0.81492 -0.486832,-0.52916 -0.761997,-1.22766 -0.275166,-0.6985 -0.275166,-1.51341 0,-0.77258 0.275166,-1.44991 0.275165,-0.68792 0.77258,-1.2065 0.497416,-0.51858 1.164163,-0.81491 0.666748,-0.29634 1.449912,-0.29634 1.05833,0 1.809745,0.45509 0.761997,0.44449 1.142996,1.18532 l -1.09008,0.80434 q -0.285749,-0.56092 -0.804331,-0.85725 -0.507998,-0.29633 -1.111246,-0.29633 -0.476249,0 -0.867831,0.20108 -0.391582,0.20108 -0.677331,0.55033 -0.285749,0.34925 -0.444498,0.80433 -0.148167,0.45508 -0.148167,0.96308 0,0.53975 0.15875,0.99483 0.169333,0.45508 0.465665,0.79375 0.306916,0.33866 0.709081,0.53975 0.402166,0.1905 0.888997,0.1905 0.571499,0 1.09008,-0.29634 0.529165,-0.29633 0.984247,-0.86783 v 1.43933 q -0.941914,1.016 -2.201326,1.016 z m 2.095493,-2.84691 h -1.513412 v -1.06891 h 2.719908 v 3.8629 H 80.71125 Z"
           style="font-style:normal;font-variant:normal;font-weight:bold;font-stretch:normal;font-size:10.5833px;line-height:1.25;font-family:Raleway;-inkscape-font-specification:'Raleway Bold';text-align:center;text-anchor:middle;fill:#ffffff;stroke-width:0.264583"
           id="path961" />
        <path
           d="m 88.384125,202.62936 v 1.28058 h -5.217567 v -7.51414 h 5.122317 v 1.28058 h -3.661822 v 1.80974 h 3.164407 v 1.18533 h -3.164407 v 1.95791 z"
           style="font-style:normal;font-variant:normal;font-weight:bold;font-stretch:normal;font-size:10.5833px;line-height:1.25;font-family:Raleway;-inkscape-font-specification:'Raleway Bold';text-align:center;text-anchor:middle;fill:#ffffff;stroke-width:0.264583"
           id="path963" />
        <path
           d="m 37.637286,209.62492 h 1.481662 l 2.762241,7.51415 h -1.502828 l -0.698498,-1.87325 h -2.624659 l -0.687914,1.87325 h -1.502829 z m 1.777994,4.61432 -1.037163,-3.1009 -1.079497,3.1009 z"
           style="font-style:normal;font-variant:normal;font-weight:bold;font-stretch:normal;font-size:10.5833px;line-height:1.25;font-family:Raleway;-inkscape-font-specification:'Raleway Bold';text-align:center;text-anchor:middle;fill:#ffffff;stroke-width:0.264583"
           id="path965" />
        <path
           d="m 42.865419,209.62492 2.031994,5.77849 2.010827,-5.77849 h 1.534578 l -2.846907,7.51415 h -1.407579 l -2.857491,-7.51415 z"
           style="font-style:normal;font-variant:normal;font-weight:bold;font-stretch:normal;font-size:10.5833px;line-height:1.25;font-family:Raleway;-inkscape-font-specification:'Raleway Bold';text-align:center;text-anchor:middle;fill:#ffffff;stroke-width:0.264583"
           id="path967" />
        <path
           d="m 50.675874,209.62492 h 1.481662 l 2.762242,7.51415 h -1.502829 l -0.698498,-1.87325 h -2.624658 l -0.687914,1.87325 H 47.90305 Z m 1.777995,4.61432 -1.037164,-3.1009 -1.079496,3.1009 z"
           style="font-style:normal;font-variant:normal;font-weight:bold;font-stretch:normal;font-size:10.5833px;line-height:1.25;font-family:Raleway;-inkscape-font-specification:'Raleway Bold';text-align:center;text-anchor:middle;fill:#ffffff;stroke-width:0.264583"
           id="path969" />
        <path
           d="m 55.745264,217.13907 v -7.51415 h 1.460495 v 7.51415 z"
           style="font-style:normal;font-variant:normal;font-weight:bold;font-stretch:normal;font-size:10.5833px;line-height:1.25;font-family:Raleway;-inkscape-font-specification:'Raleway Bold';text-align:center;text-anchor:middle;fill:#ffffff;stroke-width:0.264583"
           id="path971" />
        <path
           d="m 58.772081,217.13907 v -7.51415 h 1.460495 v 6.23357 h 3.831155 v 1.28058 z"
           style="font-style:normal;font-variant:normal;font-weight:bold;font-stretch:normal;font-size:10.5833px;line-height:1.25;font-family:Raleway;-inkscape-font-specification:'Raleway Bold';text-align:center;text-anchor:middle;fill:#ffffff;stroke-width:0.264583"
           id="path973" />
        <path
           d="m 66.995301,209.62492 h 1.481662 l 2.762241,7.51415 h -1.502828 l -0.698498,-1.87325 H 66.41322 l -0.687915,1.87325 h -1.502828 z m 1.777994,4.61432 -1.037163,-3.1009 -1.079497,3.1009 z"
           style="font-style:normal;font-variant:normal;font-weight:bold;font-stretch:normal;font-size:10.5833px;line-height:1.25;font-family:Raleway;-inkscape-font-specification:'Raleway Bold';text-align:center;text-anchor:middle;fill:#ffffff;stroke-width:0.264583"
           id="path975" />
        <path
           d="m 78.118339,215.20232 q 0,0.635 -0.328083,1.06892 -0.328082,0.42333 -0.888997,0.64558 -0.550331,0.22225 -1.206496,0.22225 h -3.630072 v -7.51415 h 4.021654 q 0.529165,0 0.910164,0.28575 0.391582,0.27517 0.592665,0.71967 0.211666,0.43391 0.211666,0.91016 0,0.53975 -0.275166,1.02658 -0.275166,0.48683 -0.804331,0.71967 0.645581,0.1905 1.015997,0.68791 0.380999,0.49742 0.380999,1.22766 z m -1.471079,-0.27516 q 0,-0.28575 -0.116416,-0.508 -0.116417,-0.23283 -0.317499,-0.35983 -0.1905,-0.13759 -0.444499,-0.13759 h -2.243659 v 1.97908 h 2.169576 q 0.264583,0 0.476249,-0.127 0.222249,-0.13758 0.349248,-0.35983 0.127,-0.22225 0.127,-0.48683 z m -3.122073,-4.05341 v 1.89441 h 1.947327 q 0.243416,0 0.444498,-0.11641 0.201083,-0.11642 0.317499,-0.32808 0.127,-0.21167 0.127,-0.508 0,-0.28575 -0.116416,-0.49742 -0.105833,-0.21166 -0.296333,-0.32808 -0.179916,-0.11642 -0.412748,-0.11642 z"
           style="font-style:normal;font-variant:normal;font-weight:bold;font-stretch:normal;font-size:10.5833px;line-height:1.25;font-family:Raleway;-inkscape-font-specification:'Raleway Bold';text-align:center;text-anchor:middle;fill:#ffffff;stroke-width:0.264583"
           id="path977" />
        <path
           d="m 79.261316,217.13907 v -7.51415 h 1.460495 v 6.23357 h 3.831155 v 1.28058 z"
           style="font-style:normal;font-variant:normal;font-weight:bold;font-stretch:normal;font-size:10.5833px;line-height:1.25;font-family:Raleway;-inkscape-font-specification:'Raleway Bold';text-align:center;text-anchor:middle;fill:#ffffff;stroke-width:0.264583"
           id="path979" />
        <path
           d="m 90.659528,215.85849 v 1.28058 h -5.217567 v -7.51415 h 5.122317 v 1.28058 h -3.661822 v 1.80975 h 3.164407 v 1.18533 h -3.164407 v 1.95791 z"
           style="font-style:normal;font-variant:normal;font-weight:bold;font-stretch:normal;font-size:10.5833px;line-height:1.25;font-family:Raleway;-inkscape-font-specification:'Raleway Bold';text-align:center;text-anchor:middle;fill:#ffffff;stroke-width:0.264583"
           id="path981" />
      </g>
    </g>
  </g>
</svg>
