<?xml version="1.0" encoding="UTF-8" standalone="no"?>
<svg
   xmlns:dc="http://purl.org/dc/elements/1.1/"
   xmlns:cc="http://creativecommons.org/ns#"
   xmlns:rdf="http://www.w3.org/1999/02/22-rdf-syntax-ns#"
   xmlns:svg="http://www.w3.org/2000/svg"
   xmlns="http://www.w3.org/2000/svg"
   width="158.75mm"
   height="79.375092mm"
   viewBox="0 0 158.75 79.375091"
   version="1.1"
   id="svg8">
  <defs
     id="defs2" />
  <metadata
     id="metadata5">
    <rdf:RDF>
      <cc:Work
         rdf:about="">
        <dc:format>image/svg+xml</dc:format>
        <dc:type
           rdf:resource="http://purl.org/dc/dcmitype/StillImage" />
        <dc:title />
      </cc:Work>
    </rdf:RDF>
  </metadata>
  <g
     id="layer1"
     transform="translate(-23.074497,-87.678367)">
    <g
       id="noimage2by1">
      <rect
         style="fill:#8dbbfe;fill-opacity:1;stroke-width:30.6268"
         id="rect854"
         width="158.75"
         height="79.375"
         x="23.074497"
         y="87.678459" />
      <g
         id="g1019">
        <path
           d="m 78.811364,116.46253 v 4.82598 h -1.460495 v -7.51414 h 1.164163 l 3.884071,4.95298 v -4.9424 h 1.460495 v 7.50356 h -1.217079 z"
           style="font-style:normal;font-variant:normal;font-weight:bold;font-stretch:normal;font-size:10.5833px;line-height:1.25;font-family:Raleway;-inkscape-font-specification:'Raleway Bold';text-align:center;text-anchor:middle;fill:#ffffff;stroke-width:0.264583"
           id="path984" />
        <path
           d="m 88.632651,121.34143 q -0.825497,0 -1.502828,-0.3175 -0.666748,-0.3175 -1.15358,-0.85725 -0.476248,-0.55033 -0.740831,-1.22766 -0.264582,-0.68791 -0.264582,-1.40758 0,-0.75141 0.275165,-1.42874 0.285749,-0.68792 0.772581,-1.21708 0.497415,-0.53975 1.164163,-0.84667 0.677331,-0.3175 1.481662,-0.3175 0.814914,0 1.481662,0.32809 0.677331,0.32808 1.15358,0.87841 0.476248,0.55033 0.740831,1.22766 0.264582,0.67733 0.264582,1.397 0,0.74083 -0.275166,1.42874 -0.275165,0.67734 -0.77258,1.21708 -0.486832,0.52917 -1.164163,0.83608 -0.666748,0.30692 -1.460496,0.30692 z m -2.180159,-3.80999 q 0,0.48683 0.148166,0.94192 0.148166,0.45508 0.423332,0.81491 0.285749,0.34925 0.687914,0.56091 0.412749,0.20109 0.931331,0.20109 0.529165,0 0.941913,-0.21167 0.412749,-0.22225 0.687915,-0.58208 0.275166,-0.37042 0.412748,-0.81491 0.148167,-0.45509 0.148167,-0.91017 0,-0.48683 -0.15875,-0.93133 -0.148166,-0.45508 -0.433915,-0.80433 -0.275166,-0.35983 -0.687915,-0.56091 -0.402165,-0.21167 -0.910163,-0.21167 -0.539749,0 -0.952497,0.22225 -0.402166,0.21167 -0.677332,0.5715 -0.275165,0.35983 -0.423332,0.80433 -0.137582,0.4445 -0.137582,0.91016 z"
           style="font-style:normal;font-variant:normal;font-weight:bold;font-stretch:normal;font-size:10.5833px;line-height:1.25;font-family:Raleway;-inkscape-font-specification:'Raleway Bold';text-align:center;text-anchor:middle;fill:#ffffff;stroke-width:0.264583"
           id="path986" />
        <path
           d="m 95.96686,121.28851 v -7.51414 h 1.460496 v 7.51414 z"
           style="font-style:normal;font-variant:normal;font-weight:bold;font-stretch:normal;font-size:10.5833px;line-height:1.25;font-family:Raleway;-inkscape-font-specification:'Raleway Bold';text-align:center;text-anchor:middle;fill:#ffffff;stroke-width:0.264583"
           id="path988" />
        <path
           d="m 105.12141,121.28851 v -4.93181 l -1.92616,3.6724 h -0.81492 l -1.92616,-3.6724 v 4.93181 h -1.460494 v -7.51414 H 100.56 l 2.2225,4.27565 2.24366,-4.27565 h 1.55574 v 7.51414 z"
           style="font-style:normal;font-variant:normal;font-weight:bold;font-stretch:normal;font-size:10.5833px;line-height:1.25;font-family:Raleway;-inkscape-font-specification:'Raleway Bold';text-align:center;text-anchor:middle;fill:#ffffff;stroke-width:0.264583"
           id="path990" />
        <path
           d="m 110.19081,113.77437 h 1.48166 l 2.76224,7.51414 h -1.50283 l -0.6985,-1.87324 h -2.62466 l -0.68791,1.87324 h -1.50283 z m 1.77799,4.61432 -1.03716,-3.10091 -1.0795,3.10091 z"
           style="font-style:normal;font-variant:normal;font-weight:bold;font-stretch:normal;font-size:10.5833px;line-height:1.25;font-family:Raleway;-inkscape-font-specification:'Raleway Bold';text-align:center;text-anchor:middle;fill:#ffffff;stroke-width:0.264583"
           id="path992" />
        <path
           d="m 118.09652,121.34143 q -0.73025,0 -1.38642,-0.29633 -0.64558,-0.29634 -1.14299,-0.81492 -0.48683,-0.52916 -0.762,-1.22766 -0.27517,-0.6985 -0.27517,-1.51341 0,-0.77258 0.27517,-1.44991 0.27517,-0.68792 0.77258,-1.2065 0.49742,-0.51858 1.16416,-0.81491 0.66675,-0.29634 1.44992,-0.29634 1.05833,0 1.80974,0.45509 0.762,0.44449 1.143,1.18533 l -1.09008,0.80433 q -0.28575,-0.56092 -0.80433,-0.85725 -0.508,-0.29633 -1.11125,-0.29633 -0.47625,0 -0.86783,0.20108 -0.39158,0.20108 -0.67733,0.55033 -0.28575,0.34925 -0.4445,0.80433 -0.14817,0.45508 -0.14817,0.96308 0,0.53975 0.15875,0.99483 0.16933,0.45508 0.46567,0.79375 0.30691,0.33867 0.70908,0.53975 0.40216,0.1905 0.889,0.1905 0.57149,0 1.09007,-0.29634 0.52917,-0.29633 0.98425,-0.86783 v 1.43933 q -0.94191,1.016 -2.20132,1.016 z m 2.09549,-2.84691 h -1.51341 v -1.06891 h 2.7199 v 3.8629 h -1.20649 z"
           style="font-style:normal;font-variant:normal;font-weight:bold;font-stretch:normal;font-size:10.5833px;line-height:1.25;font-family:Raleway;-inkscape-font-specification:'Raleway Bold';text-align:center;text-anchor:middle;fill:#ffffff;stroke-width:0.264583"
           id="path994" />
        <path
           d="m 127.86488,120.00793 v 1.28058 h -5.21756 v -7.51414 h 5.12231 v 1.28058 h -3.66182 v 1.80974 h 3.16441 v 1.18533 h -3.16441 v 1.95791 z"
           style="font-style:normal;font-variant:normal;font-weight:bold;font-stretch:normal;font-size:10.5833px;line-height:1.25;font-family:Raleway;-inkscape-font-specification:'Raleway Bold';text-align:center;text-anchor:middle;fill:#ffffff;stroke-width:0.264583"
           id="path996" />
        <path
           d="m 77.118045,127.00349 h 1.481662 l 2.762241,7.51415 h -1.502829 l -0.698498,-1.87325 h -2.624658 l -0.687914,1.87325 H 74.34522 Z m 1.777994,4.61432 -1.037163,-3.1009 -1.079497,3.1009 z"
           style="font-style:normal;font-variant:normal;font-weight:bold;font-stretch:normal;font-size:10.5833px;line-height:1.25;font-family:Raleway;-inkscape-font-specification:'Raleway Bold';text-align:center;text-anchor:middle;fill:#ffffff;stroke-width:0.264583"
           id="path998" />
        <path
           d="m 82.346178,127.00349 2.031994,5.77849 2.010827,-5.77849 h 1.534578 l -2.846908,7.51415 H 83.669091 L 80.8116,127.00349 Z"
           style="font-style:normal;font-variant:normal;font-weight:bold;font-stretch:normal;font-size:10.5833px;line-height:1.25;font-family:Raleway;-inkscape-font-specification:'Raleway Bold';text-align:center;text-anchor:middle;fill:#ffffff;stroke-width:0.264583"
           id="path1000" />
        <path
           d="m 90.156633,127.00349 h 1.481662 l 2.762241,7.51415 h -1.502828 l -0.698498,-1.87325 h -2.624658 l -0.687915,1.87325 h -1.502828 z m 1.777995,4.61432 -1.037164,-3.1009 -1.079496,3.1009 z"
           style="font-style:normal;font-variant:normal;font-weight:bold;font-stretch:normal;font-size:10.5833px;line-height:1.25;font-family:Raleway;-inkscape-font-specification:'Raleway Bold';text-align:center;text-anchor:middle;fill:#ffffff;stroke-width:0.264583"
           id="path1002" />
        <path
           d="m 95.226022,134.51764 v -7.51415 h 1.460496 v 7.51415 z"
           style="font-style:normal;font-variant:normal;font-weight:bold;font-stretch:normal;font-size:10.5833px;line-height:1.25;font-family:Raleway;-inkscape-font-specification:'Raleway Bold';text-align:center;text-anchor:middle;fill:#ffffff;stroke-width:0.264583"
           id="path1004" />
        <path
           d="m 98.25284,134.51764 v -7.51415 h 1.460495 v 6.23357 h 3.831155 v 1.28058 z"
           style="font-style:normal;font-variant:normal;font-weight:bold;font-stretch:normal;font-size:10.5833px;line-height:1.25;font-family:Raleway;-inkscape-font-specification:'Raleway Bold';text-align:center;text-anchor:middle;fill:#ffffff;stroke-width:0.264583"
           id="path1006" />
        <path
           d="m 106.47606,127.00349 h 1.48166 l 2.76224,7.51415 h -1.50283 l -0.69849,-1.87325 h -2.62466 l -0.68792,1.87325 h -1.50282 z m 1.77799,4.61432 -1.03716,-3.1009 -1.0795,3.1009 z"
           style="font-style:normal;font-variant:normal;font-weight:bold;font-stretch:normal;font-size:10.5833px;line-height:1.25;font-family:Raleway;-inkscape-font-specification:'Raleway Bold';text-align:center;text-anchor:middle;fill:#ffffff;stroke-width:0.264583"
           id="path1008" />
        <path
           d="m 117.5991,132.58089 q 0,0.635 -0.32808,1.06892 -0.32809,0.42333 -0.889,0.64558 -0.55033,0.22225 -1.2065,0.22225 h -3.63007 v -7.51415 h 4.02165 q 0.52917,0 0.91017,0.28575 0.39158,0.27517 0.59266,0.71967 0.21167,0.43391 0.21167,0.91016 0,0.53975 -0.27517,1.02658 -0.27516,0.48683 -0.80433,0.71967 0.64558,0.1905 1.016,0.68791 0.381,0.49742 0.381,1.22766 z m -1.47108,-0.27516 q 0,-0.28575 -0.11642,-0.508 -0.11641,-0.23283 -0.3175,-0.35983 -0.1905,-0.13759 -0.4445,-0.13759 h -2.24365 v 1.97908 h 2.16957 q 0.26458,0 0.47625,-0.127 0.22225,-0.13758 0.34925,-0.35983 0.127,-0.22225 0.127,-0.48683 z m -3.12207,-4.05341 v 1.89441 h 1.94732 q 0.24342,0 0.4445,-0.11641 0.20108,-0.11642 0.3175,-0.32808 0.127,-0.21167 0.127,-0.508 0,-0.28575 -0.11642,-0.49742 -0.10583,-0.21166 -0.29633,-0.32808 -0.17992,-0.11642 -0.41275,-0.11642 z"
           style="font-style:normal;font-variant:normal;font-weight:bold;font-stretch:normal;font-size:10.5833px;line-height:1.25;font-family:Raleway;-inkscape-font-specification:'Raleway Bold';text-align:center;text-anchor:middle;fill:#ffffff;stroke-width:0.264583"
           id="path1010" />
        <path
           d="m 118.74207,134.51764 v -7.51415 h 1.4605 v 6.23357 h 3.83115 v 1.28058 z"
           style="font-style:normal;font-variant:normal;font-weight:bold;font-stretch:normal;font-size:10.5833px;line-height:1.25;font-family:Raleway;-inkscape-font-specification:'Raleway Bold';text-align:center;text-anchor:middle;fill:#ffffff;stroke-width:0.264583"
           id="path1012" />
        <path
           d="m 130.14029,133.23706 v 1.28058 h -5.21757 v -7.51415 h 5.12232 v 1.28058 h -3.66182 v 1.80975 h 3.1644 v 1.18533 h -3.1644 v 1.95791 z"
           style="font-style:normal;font-variant:normal;font-weight:bold;font-stretch:normal;font-size:10.5833px;line-height:1.25;font-family:Raleway;-inkscape-font-specification:'Raleway Bold';text-align:center;text-anchor:middle;fill:#ffffff;stroke-width:0.264583"
           id="path1014" />
      </g>
      <path
         id="path858"
         style="opacity:0.2;fill:#000000;fill-opacity:1;stroke-width:0.264999"
         d="m 23.07456,87.678367 v 20.593063 a 33.408699,33.408699 0 0 0 24.17992,10.3544 33.408699,33.408699 0 0 0 33.317346,-30.947463 z" />
    </g>
  </g>
</svg>
